# AST/ASF file generated using VICON BodyLanguage
# -----------------------------------------------
:version 1.10
:name VICON
:units
  mass 1.0
  length 0.45
  angle deg
:documentation
   .ast/.asf automatically generated from VICON data using
   VICON BodyBuilder and BodyLanguage model FoxedUp or BRILLIANT.MOD
:root
   order TX TY TZ RX RY RZ
   axis XYZ
   position 0 0 0  
   orientation 0 0 0 
:bonedata
  begin
     id 1 
     name lhipjoint
     direction 0.567725 -0.736092 0.368589 
     length 2.42353 
     axis 0 0 0  XYZ
  end
  begin
     id 2 
     name lfemur
     direction 0.34202 -0.939693 0  
     length 7.24894  
     axis 0 0 20  XYZ
    dof rx ry rz
    limits (-160.0 20.0)
           (-70.0 70.0)
           (-60.0 70.0)
  end
  begin
     id 3 
     name ltibia
     direction 0.34202 -0.939693 0   
     length 7.6997   
     axis 0 0 20   XYZ
    dof rx
    limits (-10.0 170.0)
  end
  begin
     id 4 
     name lfoot
     direction 0.100767 -0.276854 0.955614   
     length 2.37556   
     axis -90 7.62852e-016 20   XYZ
    dof rx rz
    limits (-45.0 90.0)
           (-70.0 20.0)
  end
  begin
     id 5 
     name ltoes
     direction 1.53592e-011 -4.21894e-011 1   
     length 1.18363   
     axis -90 7.62852e-016 20   XYZ
    dof rx
    limits (-90.0 20.0)
  end
  begin
     id 6 
     name rhipjoint
     direction -0.556459 -0.742938 0.372017   
     length 2.4012  
     axis 0 0 0  XYZ 
  end
  begin
     id 7 
     name rfemur
     direction -0.34202 -0.939693 0   
     length 7.5119   
     axis 0 0 -20   XYZ
    dof rx ry rz
    limits (-160.0 20.0)
           (-70.0 70.0)
           (-70.0 60.0)
  end
  begin
     id 8 
     name rtibia
     direction -0.34202 -0.939693 0   
     length 7.50155   
     axis 0 0 -20   XYZ
    dof rx
    limits (-10.0 170.0)
 end
 begin
     id 9 
     name rfoot
     direction -0.118427 -0.325376 0.938139   
     length 2.32487  
     axis -90 -7.62852e-016 -20   XYZ
    dof rx rz
    limits (-45.0 90.0)
           (-20.0 70.0)
  end
  begin
     id 10 
     name rtoes
     direction -1.53525e-011 -4.21868e-011 1   
     length 1.15233   
     axis -90 -7.62852e-016 -20   XYZ
    dof rx
    limits (-90.0 20.0)
  end
  begin
     id 11 
     name lowerback
     direction 0.0287568 0.999577 -0.00434502   
     length 2.15243   
     axis 0 0 0   XYZ
    dof rx ry rz
    limits (-20.0 45.0)
           (-30.0 30.0)
           (-30.0 30.0)
  end
  begin
     id 12 
     name upperback
     direction 0.0294009 0.99956 0.00404628   
     length 2.15427   
     axis 0 0 0   XYZ
    dof rx ry rz
    limits (-20.0 45.0)
           (-30.0 30.0)
           (-30.0 30.0)
  end
  begin
     id 13 
     name thorax
     direction 0.0151014 0.999868 0.0059419   
     length 2.14898   
     axis 0 0 0   XYZ
    dof rx ry rz
    limits (-20.0 45.0)
           (-30.0 30.0)
           (-30.0 30.0)
  end
  begin
     id 14 
     name lowerneck
     direction -0.0249197 0.989906 0.139515   
     length 1.6861   
     axis 0 0 0   XYZ
    dof rx ry rz
    limits (-20.0 45.0)
           (-30.0 30.0)
           (-30.0 30.0)
  end
  begin
     id 15 
     name upperneck
     direction 0.0438463 0.988795 -0.142693   
     length 1.71276   
     axis 0 0 0   XYZ
    dof rx ry rz
    limits (-20.0 45.0)
           (-30.0 30.0)
           (-30.0 30.0)
  end
  begin
     id 16
     name head
     direction 0.0148499 0.997845 -0.0639186  
     length 1.7209  
     axis 0 0 0   XYZ
    dof rx ry rz
    limits (-20.0 45.0)
           (-30.0 30.0)
           (-30.0 30.0)
  end
  begin
     id 17 
     name lclavicle
     direction 0.940298 0.323464 -0.105876  
     length 3.9048  
     axis 0 0 0   XYZ
    dof ry rz
    limits (-20.0 10.0)
           (0.0 20.0)
  end
  begin
     id 18 
     name lhumerus
     direction 1 -4.48954e-011 -4.9675e-028   
     length 4.6851   
     axis 180 -30 -90   XYZ
    dof rx ry rz
    limits (-60.0 90.0)
           (-90.0 90.0)
           (-90.0 90.0)
  end
  begin
     id 19
     name lradius
     direction 1 -4.48992e-011 -1.03359e-026   
     length 3.39626   
     axis 180 -30 -90   XYZ
    dof rx
    limits (-10.0 170.0)
  end
  begin
     id 20
     name lwrist
     direction 1 -4.48906e-011 -1.67336e-026   
     length 1.69813   
     axis 9.90442e-015 90 90   XYZ
    dof ry
    limits (-180.0 0.0)
 end
  begin
     id 21 
     name lhand
     direction 1 -4.49006e-011 -3.34673e-026   
     length 0.486078   
     axis 2.1355e-014 90 90   XYZ
    dof rx rz
    limits (-90.0 90.0)
           (-45.0 45.0)
  end
  begin
     id 22 
     name lfingers
     direction 1 -4.48992e-011 -6.69345e-026   
     length 0.391889   
     axis 4.27099e-014 90 90   XYZ
    dof rx
    limits (0.0 90.0)
  end
  begin
     id 23
     name lthumb
     direction 0.707107 -6.34926e-011 0.707107   
     length 0.562676   
     axis -90 45 2.85299e-015   XYZ
    dof rx rz
    limits (-45.0 45.0)
           (-45.0 45.0)
  end
  begin
     id 24 
     name rclavicle
     direction -0.882459 0.414895 -0.221648   
     length 3.44646  
     axis 0 0 0   XYZ 
    dof ry rz
    limits (-10.0 20.0)
           (-20.0 0.0)
  end
  begin
     id 25 
     name rhumerus
     direction -1 -4.48962e-011 -2.37984e-027  
     length 5.55576   
     axis 180 30 90   XYZ
    dof rx ry rz
    limits (-90.0 60.0)
           (-90.0 90.0)
           (-90.0 90.0)
  end
  begin
     id 26 
     name rradius
     direction -1 -4.48982e-011 -6.86791e-027   
     length 3.32774   
     axis 180 30 90   XYZ
    dof rx
    limits (-10.0 170.0)
  end
  begin
     id 27 
     name rwrist
     direction -1 -4.48961e-011 -1.67336e-026   
     length 1.66387   
     axis 9.90442e-015 -90 -90   XYZ
    dof ry
    limits (-180.0 0.0)
  end
  begin
     id 28
     name rhand
     direction -1 -4.4897e-011 -3.34673e-026   
     length 0.507628   
     axis 2.1355e-014 -90 -90   XYZ
    dof rx rz
    limits (-90.0 90.0)
           (-45.0 45.0)
  end
  begin
     id 29
     name rfingers
     direction -1 -4.48854e-011 -6.69345e-026   
     length 0.409263   
     axis 4.27099e-014 -90 -90   XYZ
    dof rx
    limits (0.0 90.0)
  end
  begin
     id 30
     name rthumb
     direction -0.707107 -6.34913e-011 0.707107   
     length 0.587622   
     axis -90 -45 -2.85299e-015   XYZ
    dof rx rz
    limits (-45.0 45.0)
           (-45.0 45.0)
  end
:hierarchy
  begin
    root lhipjoint rhipjoint lowerback
    lhipjoint lfemur
    lfemur ltibia
    ltibia lfoot
    lfoot ltoes
    rhipjoint rfemur
    rfemur rtibia
    rtibia rfoot
    rfoot rtoes
    lowerback upperback
    upperback thorax
    thorax lowerneck lclavicle rclavicle
    lowerneck upperneck
    upperneck head
    lclavicle lhumerus
    lhumerus lradius
    lradius lwrist
    lwrist lhand lthumb
    lhand lfingers
    rclavicle rhumerus
    rhumerus rradius
    rradius rwrist
    rwrist rhand rthumb
    rhand rfingers
  end

#!OML:ASF E:\motion texture\Top Level 1\Subject 1\Session 1\male.ASF
:FULLY-SPECIFIED
:DEGREES
110
root 41.4346 17.5961 5.40409 115.237 -79.3989 -111.553
lowerback 5.08501 1.9975 8.05501
upperback 1.48307 2.96934 4.41627
thorax -1.13326 1.40169 -0.110331
lowerneck -18.3461 -6.02904 -8.98047
upperneck 7.499 -7.00883 8.45307
head 5.8539 -3.07337 3.40112
rclavicle -1.83876e-014 -8.26944e-014
rhumerus -10.7127 20.0018 -85.9813
rradius 67.3333
rwrist -11.0834
rhand -13.8607 -18.4345
rfingers 7.12502
rthumb 12.2634 -48.0549
lclavicle -1.83876e-014 -8.26944e-014
lhumerus -54.6689 -12.295 89.131
lradius 49.6358
lwrist -4.61726
lhand -10.9098 18.9477
lfingers 7.12502
lthumb 15.1074 48.3763
rfemur -3.67913 0.890314 34.7737
rtibia 19.71
rfoot -15.3715 -11.4237
rtoes 11.3984
lfemur -75.0067 10.394 -11.3593
ltibia 80.3072
lfoot 184.097 17.9964
ltoes -6.88001
111
root 41.3669 17.6011 5.39727 115.434 -79.4013 -112.039
lowerback 5.4137 2.08155 8.0383
upperback 1.43281 3.12429 4.37577
thorax -1.35903 1.47158 -0.165532
lowerneck -18.2138 -6.07247 -9.00925
upperneck 7.59621 -7.07815 8.47196
head 5.87166 -3.10825 3.40554
rclavicle 1.39149e-015 2.82274e-014
rhumerus -9.69872 20.2218 -85.5605
rradius 69.0835
rwrist -11.2894
rhand -13.8601 -18.322
rfingers 7.12502
rthumb 12.264 -47.9424
lclavicle 1.39149e-015 2.82274e-014
lhumerus -55.5508 -12.4515 88.9658
lradius 49.7683
lwrist -4.60279
lhand -10.6563 18.7317
lfingers 7.12502
lthumb 15.3515 48.1418
rfemur -2.8932 0.991033 34.7623
rtibia 19.3027
rfoot -15.4388 -11.4741
rtoes 11.2729
lfemur -76.4904 10.3864 -11.5921
ltibia 79.3439
lfoot 184.555 5.00435
ltoes -7.07938
112
root 41.2958 17.6058 5.39092 115.727 -79.4033 -112.606
lowerback 5.73278 2.16907 8.02048
upperback 1.36127 3.28469 4.32922
thorax -1.6008 1.54343 -0.228175
lowerneck -18.0658 -6.11167 -9.03795
upperneck 7.71483 -7.14583 8.50076
head 5.89401 -3.14181 3.41359
rclavicle 4.22417e-015 -4.25399e-014
rhumerus -8.70478 20.4092 -85.1306
rradius 70.729
rwrist -11.434
rhand -13.8113 -18.243
rfingers 7.12502
rthumb 12.3111 -47.8606
lclavicle 4.22417e-015 -4.25399e-014
lhumerus -56.4435 -12.6042 88.7892
lradius 49.8755
lwrist -4.57454
lhand -10.4141 18.5374
lfingers 7.12502
lthumb 15.5848 47.9295
rfemur -2.10842 1.09016 34.7409
rtibia 18.8882
rfoot -15.5025 -11.5021
rtoes 11.1409
lfemur -77.8855 10.3841 -11.8152
ltibia 78.78
lfoot 184.935 5.58085
ltoes -7.28525
113
root 41.2217 17.61 5.38502 116.047 -79.4099 -113.172
lowerback 6.01776 2.25618 8.00751
upperback 1.27027 3.44273 4.27357
thorax -1.84288 1.61391 -0.30313
lowerneck -17.8817 -6.14758 -9.05391
upperneck 7.83219 -7.21426 8.52163
head 5.90945 -3.17682 3.41764
rclavicle -3.31473e-014 -3.02153e-014
rhumerus -7.72342 20.5637 -84.6973
rradius 72.2548
rwrist -11.5129
rhand -13.7672 -18.1511
rfingers 7.12502
rthumb 12.3535 -47.7661
lclavicle -3.31473e-014 -3.02153e-014
lhumerus -57.327 -12.75 88.5907
lradius 49.9519
lwrist -4.5374
lhand -10.1575 18.3787
lfingers 7.12502
lthumb 15.832 47.7513
rfemur -1.34451 1.18641 34.7119
rtibia 18.4727
rfoot -15.5628 -11.5206
rtoes 11.0102
lfemur -79.2096 10.3742 -12.0305
ltibia 78.3253
lfoot 185.323 6.18303
ltoes -7.5319
114
root 41.1453 17.6134 5.37958 116.363 -79.4236 -113.703
lowerback 6.22 2.34354 8.00493
upperback 1.20976 3.58901 4.20793
thorax -2.00607 1.68145 -0.389968
lowerneck -17.7615 -6.189 -9.06152
upperneck 7.95317 -7.28926 8.55533
head 5.9371 -3.21247 3.42262
rclavicle 2.08724e-015 2.8625e-014
rhumerus -6.67002 20.6812 -84.2292
rradius 73.6452
rwrist -11.5303
rhand -13.7562 -18.0166
rfingers 7.12502
rthumb 12.3641 -47.631
lclavicle 2.08724e-015 2.8625e-014
lhumerus -58.1091 -12.8852 88.3494
lradius 49.9991
lwrist -4.48635
lhand -9.89952 18.2564
lfingers 7.12502
lthumb 16.0804 47.6092
rfemur -0.60982 1.27849 34.6757
rtibia 18.061
rfoot -15.6213 -11.536
rtoes 10.883
lfemur -80.4662 10.3527 -12.2392
ltibia 77.97
lfoot 185.724 6.78974
ltoes -7.73865
115
root 41.0661 17.6162 5.37468 116.738 -79.4354 -114.272
lowerback 6.35352 2.43539 8.0132
upperback 1.17291 3.73157 4.13421
thorax -2.10476 1.74952 -0.487727
lowerneck -17.6679 -6.23351 -9.05052
upperneck 8.06408 -7.36888 8.57832
head 5.9651 -3.25009 3.42018
rclavicle 3.2551e-014 7.07673e-014
rhumerus -5.56574 20.76 -83.7343
rradius 74.9122
rwrist -11.5209
rhand -13.7329 -17.896
rfingers 7.12502
rthumb 12.3867 -47.509
lclavicle 3.2551e-014 7.07673e-014
lhumerus -58.8099 -13.0073 88.0722
lradius 50.0246
lwrist -4.43199
lhand -9.65439 18.1504
lfingers 7.12502
lthumb 16.3164 47.484
rfemur 0.106579 1.37648 34.6363
rtibia 17.6583
rfoot -15.6775 -11.5474
rtoes 10.743
lfemur -81.6367 10.3378 -12.4381
ltibia 77.7111
lfoot 186.122 7.39389
ltoes -7.99476
116
root 40.9847 17.6187 5.37062 117.177 -79.4454 -114.89
lowerback 6.40426 2.53212 8.03605
upperback 1.18924 3.86667 4.05194
thorax -2.10009 1.81798 -0.596569
lowerneck -17.6611 -6.28508 -9.03159
upperneck 8.16754 -7.45446 8.6139
head 6.00551 -3.28754 3.41824
rclavicle -1.21756e-014 -4.13472e-014
rhumerus -4.36636 20.8008 -83.1966
rradius 76.0531
rwrist -11.4946
rhand -13.7108 -17.7884
rfingers 7.12502
rthumb 12.408 -47.4001
lclavicle -1.21756e-014 -4.13472e-014
lhumerus -59.3763 -13.1034 87.7415
lradius 50.0283
lwrist -4.38832
lhand -9.41462 18.0459
lfingers 7.12502
lthumb 16.5473 47.3603
rfemur 0.803614 1.48132 34.5904
rtibia 17.2737
rfoot -15.7384 -11.5554
rtoes 10.6027
lfemur -82.712 10.3285 -12.6275
ltibia 77.5407
lfoot 186.503 7.97299
ltoes -8.23407
117
root 40.9012 17.6203 5.36708 117.656 -79.4575 -115.528
lowerback 6.37051 2.63126 8.06431
upperback 1.25678 3.99065 3.9652
thorax -1.99424 1.88512 -0.706227
lowerneck -17.7411 -6.34258 -9.00255
upperneck 8.2597 -7.54255 8.64692
head 6.0561 -3.32411 3.4119
rclavicle -6.01324e-015 3.45885e-014
rhumerus -3.08066 20.8081 -82.6167
rradius 77.0678
rwrist -11.4672
rhand -13.6966 -17.6921
rfingers 7.12502
rthumb 12.4216 -47.303
lclavicle -6.01324e-015 3.45885e-014
lhumerus -59.811 -13.1655 87.3618
lradius 50.0151
lwrist -4.36513
lhand -9.16091 17.9819
lfingers 7.12502
lthumb 16.7915 47.2758
rfemur 1.47537 1.59372 34.5389
rtibia 16.9112
rfoot -15.8039 -11.5693
rtoes 10.4484
lfemur -83.6976 10.3219 -12.8123
ltibia 77.4518
lfoot 186.861 8.52551
ltoes -8.46645
118
root 40.8159 17.621 5.36439 118.172 -79.4729 -116.185
lowerback 6.28561 2.73044 8.0945
upperback 1.34759 4.10677 3.87616
thorax -1.83527 1.95068 -0.814718
lowerneck -17.8612 -6.40226 -8.97731
upperneck 8.33974 -7.63058 8.69126
head 6.11003 -3.35904 3.40902
rclavicle -2.5842e-015 3.18055e-014
rhumerus -1.77647 20.7869 -82.0161
rradius 77.9716
rwrist -11.4429
rhand -13.6859 -17.6192
rfingers 7.12502
rthumb 12.4319 -47.2295
lclavicle -2.5842e-015 3.18055e-014
lhumerus -60.1653 -13.1866 86.9464
lradius 49.9898
lwrist -4.37298
lhand -8.95184 17.8868
lfingers 7.12502
lthumb 16.9928 47.1635
rfemur 2.12007 1.70748 34.4774
rtibia 16.5725
rfoot -15.8759 -11.5832
rtoes 10.2834
lfemur -84.591 10.3135 -12.9936
ltibia 77.4364
lfoot 187.18 9.04814
ltoes -8.66578
119
root 40.7289 17.6206 5.36225 118.707 -79.4856 -116.843
lowerback 6.18038 2.82708 8.12781
upperback 1.44137 4.21719 3.7875
thorax -1.66162 2.01411 -0.922148
lowerneck -18.0003 -6.46175 -8.96697
upperneck 8.41854 -7.71614 8.75445
head 6.16793 -3.39132 3.41445
rclavicle -2.5842e-014 -7.55382e-015
rhumerus -0.494436 20.7435 -81.4163
rradius 78.7732
rwrist -11.4291
rhand -13.6568 -17.5605
rfingers 7.12502
rthumb 12.46 -47.169
lclavicle -2.5842e-014 -7.55382e-015
lhumerus -60.4792 -13.1703 86.506
lradius 49.9652
lwrist -4.41444
lhand -8.7402 17.7984
lfingers 7.12502
lthumb 17.1965 47.0575
rfemur 2.74021 1.82831 34.4163
rtibia 16.2573
rfoot -15.9543 -11.6044
rtoes 10.0994
lfemur -85.3879 10.3078 -13.1642
ltibia 77.4892
lfoot 187.453 9.54529
ltoes -8.83741
120
root 40.6401 17.619 5.36082 119.239 -79.5016 -117.481
lowerback 6.0605 2.91774 8.15922
upperback 1.51765 4.31976 3.70064
thorax -1.49848 2.07322 -1.02516
lowerneck -18.1041 -6.5139 -8.96787
upperneck 8.49264 -7.79283 8.82432
head 6.21867 -3.41995 3.42555
rclavicle -2.0276e-014 -6.87795e-014
rhumerus 0.709755 20.6892 -80.8359
rradius 79.4821
rwrist -11.4266
rhand -13.6268 -17.5099
rfingers 7.12502
rthumb 12.4889 -47.1168
lclavicle -2.0276e-014 -6.87795e-014
lhumerus -60.7956 -13.1164 86.0551
lradius 49.9419
lwrist -4.47382
lhand -8.53738 17.7067
lfingers 7.12502
lthumb 17.3917 46.9486
rfemur 3.33169 1.94956 34.3495
rtibia 15.9701
rfoot -16.0448 -11.6287
rtoes 9.90252
lfemur -86.0896 10.2961 -13.3273
ltibia 77.6024
lfoot 187.675 10.0188
ltoes -8.96809
